<svg width="33" height="33" viewBox="0 0 33 33" fill="none" xmlns="http://www.w3.org/2000/svg">
<path d="M32.4505 16.4684L32.4505 16.4673C32.3863 7.80362 25.2615 0.670251 16.4681 0.670251C7.7382 0.670251 0.612939 7.80403 0.612939 16.4684C0.612939 25.1967 7.73899 32.2666 16.5317 32.2666C25.3245 32.2666 32.4505 25.1967 32.4505 16.4684ZM16.4681 30.9571C8.41117 30.9571 1.8667 24.461 1.8667 16.4684C1.8667 8.47588 8.41117 1.97981 16.4681 1.97981C24.5251 1.97981 31.0696 8.47588 31.0696 16.4684C31.0696 24.461 24.5251 30.9571 16.4681 30.9571Z" fill="black" stroke="black" stroke-width="0.3"/>
<path d="M5.86639 17.7058C4.54517 12.6527 7.52644 7.51692 12.5391 6.20628C12.6529 6.17653 12.745 6.11114 12.7994 6.01728C12.8539 5.9235 12.8651 5.81089 12.8353 5.69685L12.6745 5.08169C12.6447 4.96765 12.5797 4.87497 12.4863 4.81984C12.3929 4.76465 12.2806 4.75272 12.1668 4.78247C6.3744 6.29699 2.92627 12.2404 4.45199 18.0756C4.48181 18.1897 4.54677 18.2823 4.64013 18.3375C4.73356 18.3927 4.8459 18.4046 4.95968 18.3749L5.57013 18.2152C5.65949 18.1919 5.74653 18.1234 5.80408 18.0379C5.86307 17.9502 5.89942 17.8321 5.86639 17.7058Z" fill="#067891" stroke="#067891" stroke-width="0.2"/>
<path d="M21.8797 11.8668L21.8799 11.8668L21.8827 11.8606L22.1358 11.2954C22.1884 11.1882 22.1823 11.0684 22.1516 10.9671C22.1202 10.8632 22.0589 10.763 21.9786 10.6832L21.9614 10.6661L21.9396 10.6553C20.3273 9.85533 18.7094 9.35023 17.3177 9.20248V6.30978C17.3177 6.1807 17.2737 6.06163 17.186 5.97458C17.0983 5.88763 16.9789 5.84429 16.8498 5.84429H16.214C16.0849 5.84429 15.9655 5.88763 15.8778 5.97458C15.7901 6.06163 15.7461 6.1807 15.7461 6.30978V9.18958C15.6984 9.19067 15.6506 9.19279 15.6044 9.19695C15.518 9.20475 15.4261 9.22045 15.3436 9.25655C13.6641 9.5183 12.3524 10.3594 11.6927 11.6687L11.6927 11.6687L11.6913 11.6715C11.0952 12.9203 11.2283 14.3033 12.0224 15.4197L12.0223 15.4197L12.0249 15.4232C12.8014 16.4505 14.1314 17.0255 15.7461 17.1743V22.3585C14.5458 22.2142 13.2348 21.7808 11.921 20.8942C11.8156 20.7977 11.6974 20.798 11.591 20.7984C11.5847 20.7984 11.5785 20.7984 11.5724 20.7984C11.492 20.7984 11.4279 20.8374 11.3874 20.8675C11.347 20.8976 11.3087 20.9356 11.2793 20.9648L11.276 20.9681L11.2684 20.9756L11.2619 20.9842L10.8861 21.4814C10.7858 21.5872 10.7861 21.7067 10.7865 21.8134C10.7865 21.8196 10.7865 21.8257 10.7865 21.8318C10.7865 21.9126 10.8263 21.9768 10.8566 22.0169C10.887 22.0571 10.9253 22.0951 10.9547 22.1242L10.958 22.1275L10.969 22.1385L10.982 22.1469C12.6038 23.1992 14.2309 23.7743 15.7461 23.9248V26.5641C15.7461 26.6932 15.7901 26.8122 15.8778 26.8993C15.9655 26.9862 16.0849 27.0296 16.214 27.0296H16.8498C16.9789 27.0296 17.0983 26.9862 17.186 26.8993C17.2737 26.8122 17.3177 26.6932 17.3177 26.5641V23.9938C18.9421 23.8993 20.3224 23.2663 21.2156 22.3799C22.2799 21.3238 22.4832 19.8611 21.7482 18.6013C21.0302 17.3707 19.4947 16.4825 17.3177 15.8507V10.8351C18.2974 10.9781 19.6148 11.3513 21.2173 12.115C21.2805 12.166 21.3591 12.1859 21.4278 12.1859C21.489 12.1859 21.5579 12.1701 21.6169 12.1308C21.6735 12.1163 21.7201 12.0834 21.7561 12.0477C21.804 12.0002 21.8444 11.937 21.8797 11.8668ZM20.0557 21.2787L20.0556 21.2786L20.0505 21.2836C19.4729 21.8568 18.4913 22.2787 17.2542 22.4223V17.5556C19.3744 18.2331 20.1183 19.0613 20.3401 19.5016L20.3451 19.5115L20.3515 19.5205C20.5567 19.8114 20.637 20.1048 20.5959 20.3907C20.5545 20.6781 20.3873 20.9796 20.0557 21.2787ZM13.2177 14.4845C12.8034 13.894 12.6893 13.1357 13.0406 12.4367C13.4577 11.6697 14.3602 11.0624 15.5263 10.8766C15.578 10.8766 15.6297 10.8764 15.6825 10.8691V15.6061C14.5763 15.4659 13.7293 15.1019 13.2177 14.4845Z" fill="#067891" stroke="#067891" stroke-width="0.3"/>
</svg>
