<svg width="36" height="36" viewBox="0 0 36 36" fill="none" xmlns="http://www.w3.org/2000/svg">
<path d="M17.9224 34.936C27.2344 34.9816 34.8905 27.3999 34.936 18.088C34.9816 8.776 27.3999 1.11988 18.088 1.07435C8.77601 1.02883 1.11989 8.61046 1.07436 17.9224C1.02884 27.2344 8.61047 34.8905 17.9224 34.936ZM25.9012 4.63989L24.9115 5.05833L22.0088 7.16055L22.4238 8.8557L20.9351 10.3299L19.2407 10.6038L19.9365 12.5825L19.7881 14.0633L18.2932 16.8073L18.2822 19.0647L20.1787 20.7671L23.3542 20.571L23.3428 22.899L23.9712 24.2425L23.5355 26.78L24.7168 30.4542L26.6243 29.8992L27.4069 28.5626L27.8398 26.5894L29.1846 25.6789L29.1998 22.5749L30.9803 19.1268L30.49 18.419L33.393 16.2462C33.4608 16.8109 33.5282 17.4462 33.5251 18.0811C33.4834 26.617 26.4653 33.5669 17.9293 33.5251C15.6013 33.5137 13.4169 33.0092 11.4461 32.0825L11.7365 30.3908L12.7947 30.396L13.0136 28.9156L12.7355 28.0676L13.9369 27.6502L15.002 26.2445L14.3037 24.7596L15.4366 23.9186L12.2735 21.5751L12.1386 20.3046L10.727 20.4388L10.7342 18.9573L9.10996 19.3021L6.63536 20.4187L7.12711 20.8444L6.33938 23.2392L8.64979 26.8484L8.64323 28.1887L8.92128 29.0366L8.56234 30.3047C4.90745 27.5355 2.53029 23.15 2.48354 18.282L4.66941 18.5044L5.45644 16.2507L6.80335 14.9169L8.21736 14.2889L8.8633 12.0346L10.2043 11.9L11.553 10.2135L12.8978 9.30296L12.0602 7.46465L10.2288 6.89132L12.8421 6.26918L14.9536 7.26715L15.9468 6.14326L18.3488 5.44953L19.0649 3.26608L17.7283 2.48353C17.7989 2.48388 17.94 2.48457 18.0105 2.48491C20.9029 2.49905 23.5798 3.28815 25.9012 4.63989Z" fill="white"/>
</svg>
