<svg width="48" height="27" viewBox="0 0 48 27" fill="none" xmlns="http://www.w3.org/2000/svg">
<path d="M40.4835 21.2479V23.9339C40.4835 25.0702 39.5124 26 38.3554 26H3.02479C1.88843 26 1 25.0702 1 23.9339V3.06612C1 1.92975 1.86777 1 3.02479 1H38.3554C39.4917 1 40.4835 1.92975 40.4835 3.06612V15.4628" stroke="black" stroke-width="2" stroke-miterlimit="10" stroke-linecap="round" stroke-linejoin="round"/>
<path d="M40.4836 7.73556C40.4836 7.32234 40.153 6.99176 39.7398 6.99176H1.76455C1.35133 6.99176 1.02075 7.32234 1.02075 7.73556V12.6323C1.02075 13.0455 1.35133 13.3761 1.76455 13.3761H39.7191C40.1323 13.3761 40.4629 13.0455 40.4629 12.6323V7.73556H40.4836Z" stroke="black" stroke-width="2" stroke-miterlimit="10" stroke-linecap="round" stroke-linejoin="round"/>
<path d="M3.91333 21.4545H9.28523" stroke="black" stroke-width="2" stroke-miterlimit="10" stroke-linecap="round" stroke-linejoin="round"/>
<path d="M33.7272 16.1033L31.4338 18.3967L33.7272 20.6901" stroke="#067891" stroke-width="2" stroke-miterlimit="10" stroke-linecap="round" stroke-linejoin="round"/>
<path d="M31.6611 18.4793C31.6611 18.4793 43.3553 18.4587 43.3967 18.4587C45.1529 18.3967 46.4545 16.9711 46.4545 15.1942V14.781C46.4545 12.9628 45.1322 11.5165 43.2934 11.5165H42.9215" stroke="#067891" stroke-width="2" stroke-miterlimit="10" stroke-linecap="round" stroke-linejoin="round"/>
</svg>
