<svg width="88" height="77" viewBox="0 0 88 77" fill="none" xmlns="http://www.w3.org/2000/svg">
<path d="M77.1286 76.9998H29.7851C23.9519 76.9998 19.2074 72.2516 19.2074 66.4184V58.2362C19.2074 52.403 23.9519 47.6548 29.7851 47.6548H77.1274C82.9606 47.6548 87.7088 52.403 87.7088 58.2362V66.4184C87.7088 72.2516 82.9606 76.9998 77.1286 76.9998ZM29.7851 53.1729C26.9948 53.1729 24.7243 55.4459 24.7243 58.2374V66.4196C24.7243 69.2099 26.9948 71.4841 29.7851 71.4841H77.1274C79.9177 71.4841 82.1919 69.2111 82.1919 66.4196V58.2374C82.1919 55.4471 79.919 53.1729 77.1274 53.1729H29.7851Z" fill="black"/>
<path d="M35.2383 66.1855C37.367 66.1855 39.0927 64.4598 39.0927 62.331C39.0927 60.2023 37.367 58.4766 35.2383 58.4766C33.1095 58.4766 31.3838 60.2023 31.3838 62.331C31.3838 64.4598 33.1095 66.1855 35.2383 66.1855Z" fill="#219653"/>
<path d="M46.9181 66.1855C49.0468 66.1855 50.7725 64.4598 50.7725 62.331C50.7725 60.2023 49.0468 58.4766 46.9181 58.4766C44.7893 58.4766 43.0636 60.2023 43.0636 62.331C43.0636 64.4598 44.7893 66.1855 46.9181 66.1855Z" fill="#219653"/>
<path d="M58.5943 66.1855C60.7245 66.1855 62.4513 64.4587 62.4513 62.3286C62.4513 60.1985 60.7245 58.4717 58.5943 58.4717C56.4642 58.4717 54.7374 60.1985 54.7374 62.3286C54.7374 64.4587 56.4642 66.1855 58.5943 66.1855Z" fill="#219653"/>
<path d="M70.2754 58.478C72.4012 58.478 74.1262 60.2017 74.1262 62.3288C74.1262 64.4583 72.4025 66.1857 70.2754 66.1857C68.1422 66.1857 66.4185 64.4583 66.4185 62.3288C66.4172 60.2017 68.1422 58.478 70.2754 58.478Z" fill="#219653"/>
<path d="M35.7728 30.5084C34.2501 30.5084 33.0144 29.2726 33.0144 27.75V15.5527C33.0144 10.0175 28.5138 5.51689 22.9785 5.51689C17.4432 5.51689 12.9427 10.0175 12.9427 15.5527V27.75C12.9427 29.2726 11.7069 30.5084 10.1842 30.5084C8.66157 30.5084 7.42578 29.2726 7.42578 27.75V15.5527C7.42578 6.9758 14.4004 0 22.9785 0C31.5567 0 38.5312 6.97458 38.5312 15.5527V27.75C38.5312 29.2739 37.2955 30.5084 35.7728 30.5084Z" fill="black"/>
<path d="M13.878 65.9994H7.95168C3.56636 65.9994 0 62.4294 0 58.0404V33.0023C0 28.6133 3.56636 25.0432 7.95168 25.0432H39.6235C44.0089 25.0432 47.5752 28.6133 47.5752 33.0023V47.0066C47.5752 48.5292 46.3394 49.765 44.8168 49.765C43.2941 49.765 42.0583 48.5292 42.0583 47.0066V33.0023C42.0583 31.6549 40.966 30.5601 39.6235 30.5601H7.95168C6.60801 30.5601 5.51689 31.6561 5.51689 33.0023V58.0404C5.51689 59.3877 6.60924 60.4825 7.95168 60.4825H13.878C15.4007 60.4825 16.6365 61.7183 16.6365 63.241C16.6365 64.7636 15.4007 65.9994 13.878 65.9994Z" fill="black"/>
</svg>
