<svg width="276" height="413" viewBox="0 0 276 413" fill="none" xmlns="http://www.w3.org/2000/svg">
<g filter="url(#filter0_i)">
<path d="M140 314C215.111 314 276 253.111 276 178C276 102.889 215.111 42 140 42C64.8893 42 4 102.889 4 178C4 253.111 64.8893 314 140 314Z" fill="#067891"/>
</g>
<g filter="url(#filter1_i)">
<path d="M24.5 332C38.031 332 49 321.031 49 307.5C49 293.969 38.031 283 24.5 283C10.969 283 0 293.969 0 307.5C0 321.031 10.969 332 24.5 332Z" fill="#067891"/>
</g>
<g filter="url(#filter2_i)">
<path d="M60.5 365C69.0604 365 76 358.06 76 349.5C76 340.94 69.0604 334 60.5 334C51.9396 334 45 340.94 45 349.5C45 358.06 51.9396 365 60.5 365Z" fill="#067891"/>
</g>
<path d="M65.6867 74.3734C68.1803 69.7425 71.7425 66.1803 76.3734 63.6867C71.7425 61.5494 68.1803 57.6309 65.6867 53C63.5494 57.6309 59.6309 61.1932 55 63.6867C59.6309 66.1803 63.5494 69.7425 65.6867 74.3734Z" fill="#00C3ED"/>
<g filter="url(#filter3_d)">
<path d="M105 123C106.633 119.967 108.967 117.633 112 116C108.967 114.6 106.633 112.033 105 109C103.6 112.033 101.033 114.367 98 116C101.033 117.633 103.6 119.967 105 123Z" fill="#00C3ED"/>
</g>
<g filter="url(#filter4_d)">
<path d="M178 30C181.5 23.5 186.5 18.5 193 15C186.5 12 181.5 6.5 178 0C175 6.5 169.5 11.5 163 15C169.5 18.5 175 23.5 178 30Z" fill="#00C3ED"/>
</g>
<g filter="url(#filter5_d)">
<path d="M249.5 151C252.183 146.017 256.017 142.183 261 139.5C256.017 137.2 252.183 132.983 249.5 128C247.2 132.983 242.983 136.817 238 139.5C242.983 142.183 247.2 146.017 249.5 151Z" fill="#00C3ED"/>
</g>
<g filter="url(#filter6_d)">
<path d="M33.5 292C35.7167 287.883 38.8833 284.717 43 282.5C38.8833 280.6 35.7167 277.117 33.5 273C31.6 277.117 28.1167 280.283 24 282.5C28.1167 284.717 31.6 287.883 33.5 292Z" fill="#00C3ED"/>
</g>
<g filter="url(#filter7_i)">
<path d="M92.2879 370.61C92.2879 369.513 92.4046 368.452 92.6379 367.425C92.8946 366.398 93.2912 365.488 93.8279 364.695C94.3646 363.878 95.0646 363.237 95.9279 362.77C96.7912 362.28 97.8412 362.035 99.0779 362.035C100.315 362.035 101.365 362.28 102.228 362.77C103.091 363.237 103.791 363.878 104.328 364.695C104.865 365.488 105.25 366.398 105.483 367.425C105.74 368.452 105.868 369.513 105.868 370.61C105.868 371.66 105.74 372.687 105.483 373.69C105.25 374.67 104.865 375.557 104.328 376.35C103.791 377.143 103.091 377.785 102.228 378.275C101.365 378.742 100.315 378.975 99.0779 378.975C97.8412 378.975 96.7912 378.742 95.9279 378.275C95.0646 377.785 94.3646 377.143 93.8279 376.35C93.2912 375.557 92.8946 374.67 92.6379 373.69C92.4046 372.687 92.2879 371.66 92.2879 370.61ZM86.7929 370.61C86.7929 372.43 87.0729 374.133 87.6329 375.72C88.1929 377.283 88.9979 378.648 90.0479 379.815C91.0979 380.982 92.3812 381.903 93.8979 382.58C95.4379 383.233 97.1646 383.56 99.0779 383.56C101.015 383.56 102.741 383.233 104.258 382.58C105.775 381.903 107.058 380.982 108.108 379.815C109.158 378.648 109.963 377.283 110.523 375.72C111.083 374.133 111.363 372.43 111.363 370.61C111.363 368.743 111.083 367.017 110.523 365.43C109.963 363.82 109.158 362.42 108.108 361.23C107.058 360.04 105.775 359.107 104.258 358.43C102.741 357.753 101.015 357.415 99.0779 357.415C97.1646 357.415 95.4379 357.753 93.8979 358.43C92.3812 359.107 91.0979 360.04 90.0479 361.23C88.9979 362.42 88.1929 363.82 87.6329 365.43C87.0729 367.017 86.7929 368.743 86.7929 370.61ZM119.704 373.97C119.704 373.247 119.774 372.535 119.914 371.835C120.054 371.135 120.287 370.517 120.614 369.98C120.964 369.443 121.419 369.012 121.979 368.685C122.539 368.335 123.239 368.16 124.079 368.16C124.919 368.16 125.619 368.335 126.179 368.685C126.762 369.012 127.217 369.443 127.544 369.98C127.894 370.517 128.139 371.135 128.279 371.835C128.419 372.535 128.489 373.247 128.489 373.97C128.489 374.693 128.419 375.405 128.279 376.105C128.139 376.782 127.894 377.4 127.544 377.96C127.217 378.497 126.762 378.928 126.179 379.255C125.619 379.582 124.919 379.745 124.079 379.745C123.239 379.745 122.539 379.582 121.979 379.255C121.419 378.928 120.964 378.497 120.614 377.96C120.287 377.4 120.054 376.782 119.914 376.105C119.774 375.405 119.704 374.693 119.704 373.97ZM114.734 373.97C114.734 375.417 114.956 376.723 115.399 377.89C115.842 379.057 116.472 380.06 117.289 380.9C118.106 381.717 119.086 382.347 120.229 382.79C121.372 383.233 122.656 383.455 124.079 383.455C125.502 383.455 126.786 383.233 127.929 382.79C129.096 382.347 130.087 381.717 130.904 380.9C131.721 380.06 132.351 379.057 132.794 377.89C133.237 376.723 133.459 375.417 133.459 373.97C133.459 372.523 133.237 371.217 132.794 370.05C132.351 368.86 131.721 367.857 130.904 367.04C130.087 366.2 129.096 365.558 127.929 365.115C126.786 364.648 125.502 364.415 124.079 364.415C122.656 364.415 121.372 364.648 120.229 365.115C119.086 365.558 118.106 366.2 117.289 367.04C116.472 367.857 115.842 368.86 115.399 370.05C114.956 371.217 114.734 372.523 114.734 373.97ZM146.526 379.745C145.732 379.745 145.056 379.582 144.496 379.255C143.936 378.928 143.481 378.508 143.131 377.995C142.804 377.458 142.559 376.84 142.396 376.14C142.256 375.44 142.186 374.728 142.186 374.005C142.186 373.258 142.256 372.535 142.396 371.835C142.536 371.135 142.769 370.517 143.096 369.98C143.446 369.443 143.889 369.012 144.426 368.685C144.986 368.335 145.674 368.16 146.491 368.16C147.284 368.16 147.949 368.335 148.486 368.685C149.046 369.012 149.501 369.455 149.851 370.015C150.201 370.552 150.446 371.17 150.586 371.87C150.749 372.57 150.831 373.282 150.831 374.005C150.831 374.728 150.761 375.44 150.621 376.14C150.481 376.84 150.236 377.458 149.886 377.995C149.559 378.508 149.116 378.928 148.556 379.255C148.019 379.582 147.342 379.745 146.526 379.745ZM137.391 364.905V389.335H142.361V380.76H142.431C143.037 381.647 143.807 382.323 144.741 382.79C145.697 383.233 146.736 383.455 147.856 383.455C149.186 383.455 150.341 383.198 151.321 382.685C152.324 382.172 153.152 381.483 153.806 380.62C154.482 379.757 154.984 378.765 155.311 377.645C155.637 376.525 155.801 375.358 155.801 374.145C155.801 372.862 155.637 371.637 155.311 370.47C154.984 369.28 154.482 368.242 153.806 367.355C153.129 366.468 152.277 365.757 151.251 365.22C150.224 364.683 148.999 364.415 147.576 364.415C146.456 364.415 145.429 364.637 144.496 365.08C143.562 365.523 142.792 366.235 142.186 367.215H142.116V364.905H137.391ZM163.337 377.12H158.612C158.659 378.333 158.927 379.348 159.417 380.165C159.93 380.958 160.572 381.6 161.342 382.09C162.135 382.58 163.034 382.93 164.037 383.14C165.04 383.35 166.067 383.455 167.117 383.455C168.144 383.455 169.147 383.35 170.127 383.14C171.13 382.953 172.017 382.615 172.787 382.125C173.557 381.635 174.175 380.993 174.642 380.2C175.132 379.383 175.377 378.38 175.377 377.19C175.377 376.35 175.214 375.65 174.887 375.09C174.56 374.507 174.129 374.028 173.592 373.655C173.055 373.258 172.437 372.943 171.737 372.71C171.06 372.477 170.36 372.278 169.637 372.115C168.937 371.952 168.249 371.8 167.572 371.66C166.895 371.52 166.289 371.368 165.752 371.205C165.239 371.018 164.819 370.785 164.492 370.505C164.165 370.225 164.002 369.863 164.002 369.42C164.002 369.047 164.095 368.755 164.282 368.545C164.469 368.312 164.69 368.137 164.947 368.02C165.227 367.903 165.53 367.833 165.857 367.81C166.184 367.763 166.487 367.74 166.767 367.74C167.654 367.74 168.424 367.915 169.077 368.265C169.73 368.592 170.092 369.233 170.162 370.19H174.887C174.794 369.07 174.502 368.148 174.012 367.425C173.545 366.678 172.95 366.083 172.227 365.64C171.504 365.197 170.675 364.882 169.742 364.695C168.832 364.508 167.887 364.415 166.907 364.415C165.927 364.415 164.97 364.508 164.037 364.695C163.104 364.858 162.264 365.162 161.517 365.605C160.77 366.025 160.164 366.608 159.697 367.355C159.254 368.102 159.032 369.058 159.032 370.225C159.032 371.018 159.195 371.695 159.522 372.255C159.849 372.792 160.28 373.247 160.817 373.62C161.354 373.97 161.96 374.262 162.637 374.495C163.337 374.705 164.049 374.892 164.772 375.055C166.545 375.428 167.922 375.802 168.902 376.175C169.905 376.548 170.407 377.108 170.407 377.855C170.407 378.298 170.302 378.672 170.092 378.975C169.882 379.255 169.614 379.488 169.287 379.675C168.984 379.838 168.634 379.967 168.237 380.06C167.864 380.13 167.502 380.165 167.152 380.165C166.662 380.165 166.184 380.107 165.717 379.99C165.274 379.873 164.877 379.698 164.527 379.465C164.177 379.208 163.885 378.893 163.652 378.52C163.442 378.123 163.337 377.657 163.337 377.12ZM179.231 377.61V383H184.726V377.61H179.231ZM184.551 364.73V358.01H179.371V364.73L180.701 375.51H183.186L184.551 364.73Z" fill="#067891"/>
<path d="M68.7542 405.945H67.8702C67.8442 406.517 67.9179 407.007 68.0912 407.414C68.2732 407.821 68.5289 408.155 68.8582 408.415C69.1875 408.675 69.5862 408.87 70.0542 409C70.5222 409.121 71.0292 409.182 71.5752 409.182C72.1212 409.182 72.5892 409.13 72.9792 409.026C73.3692 408.931 73.6942 408.805 73.9542 408.649C74.2229 408.484 74.4309 408.302 74.5782 408.103C74.7342 407.904 74.8512 407.709 74.9292 407.518C75.0159 407.319 75.0679 407.132 75.0852 406.959C75.1112 406.786 75.1242 406.647 75.1242 406.543C75.1242 406.162 75.0592 405.837 74.9292 405.568C74.8079 405.299 74.6345 405.074 74.4092 404.892C74.1925 404.701 73.9369 404.545 73.6422 404.424C73.3562 404.294 73.0485 404.186 72.7192 404.099L70.4572 403.54C70.2665 403.497 70.0845 403.44 69.9112 403.371C69.7465 403.302 69.5992 403.211 69.4692 403.098C69.3392 402.985 69.2352 402.851 69.1572 402.695C69.0879 402.53 69.0532 402.34 69.0532 402.123C69.0532 401.776 69.1182 401.486 69.2482 401.252C69.3782 401.018 69.5472 400.832 69.7552 400.693C69.9719 400.546 70.2189 400.442 70.4962 400.381C70.7822 400.312 71.0769 400.277 71.3802 400.277C71.7095 400.277 72.0215 400.325 72.3162 400.42C72.6195 400.507 72.8839 400.641 73.1092 400.823C73.3432 400.996 73.5295 401.217 73.6682 401.486C73.8155 401.746 73.8979 402.054 73.9152 402.409H74.7992C74.7992 401.932 74.7039 401.516 74.5132 401.161C74.3312 400.797 74.0842 400.494 73.7722 400.251C73.4602 400.008 73.0962 399.826 72.6802 399.705C72.2642 399.584 71.8265 399.523 71.3672 399.523C70.7172 399.523 70.1842 399.618 69.7682 399.809C69.3522 399.991 69.0229 400.216 68.7802 400.485C68.5462 400.754 68.3859 401.04 68.2992 401.343C68.2125 401.646 68.1692 401.911 68.1692 402.136C68.1692 402.5 68.2255 402.808 68.3382 403.059C68.4595 403.31 68.6155 403.523 68.8062 403.696C68.9969 403.869 69.2179 404.008 69.4692 404.112C69.7292 404.216 69.9935 404.303 70.2622 404.372L72.3292 404.879C72.5459 404.931 72.7669 405 72.9922 405.087C73.2175 405.165 73.4212 405.269 73.6032 405.399C73.7939 405.529 73.9455 405.689 74.0582 405.88C74.1795 406.071 74.2402 406.296 74.2402 406.556C74.2402 406.894 74.1579 407.184 73.9932 407.427C73.8285 407.661 73.6205 407.856 73.3692 408.012C73.1265 408.159 72.8622 408.268 72.5762 408.337C72.2902 408.406 72.0259 408.441 71.7832 408.441C71.3585 408.441 70.9599 408.402 70.5872 408.324C70.2145 408.237 69.8895 408.099 69.6122 407.908C69.3435 407.717 69.1312 407.462 68.9752 407.141C68.8192 406.82 68.7455 406.422 68.7542 405.945ZM79.4647 402.786C79.8547 402.786 80.197 402.868 80.4917 403.033C80.7864 403.198 81.029 403.414 81.2197 403.683C81.419 403.952 81.5664 404.259 81.6617 404.606C81.7657 404.944 81.8177 405.291 81.8177 405.646C81.8177 406.001 81.7657 406.352 81.6617 406.699C81.5664 407.037 81.419 407.34 81.2197 407.609C81.029 407.878 80.7864 408.094 80.4917 408.259C80.197 408.424 79.8547 408.506 79.4647 408.506C79.0747 408.506 78.7324 408.424 78.4377 408.259C78.143 408.094 77.896 407.878 77.6967 407.609C77.506 407.34 77.3587 407.037 77.2547 406.699C77.1594 406.352 77.1117 406.001 77.1117 405.646C77.1117 405.291 77.1594 404.944 77.2547 404.606C77.3587 404.259 77.506 403.952 77.6967 403.683C77.896 403.414 78.143 403.198 78.4377 403.033C78.7324 402.868 79.0747 402.786 79.4647 402.786ZM79.4647 402.097C78.9534 402.097 78.4984 402.192 78.0997 402.383C77.7097 402.574 77.3804 402.829 77.1117 403.15C76.843 403.471 76.6394 403.848 76.5007 404.281C76.362 404.706 76.2927 405.161 76.2927 405.646C76.2927 406.131 76.362 406.591 76.5007 407.024C76.6394 407.449 76.843 407.821 77.1117 408.142C77.3804 408.463 77.7097 408.718 78.0997 408.909C78.4984 409.091 78.9534 409.182 79.4647 409.182C79.976 409.182 80.4267 409.091 80.8167 408.909C81.2154 408.718 81.549 408.463 81.8177 408.142C82.0864 407.821 82.29 407.449 82.4287 407.024C82.5674 406.591 82.6367 406.131 82.6367 405.646C82.6367 405.161 82.5674 404.706 82.4287 404.281C82.29 403.848 82.0864 403.471 81.8177 403.15C81.549 402.829 81.2154 402.574 80.8167 402.383C80.4267 402.192 79.976 402.097 79.4647 402.097ZM84.1143 402.292V409H84.9333V405.425C84.9333 405.07 84.994 404.745 85.1153 404.45C85.2366 404.147 85.4056 403.887 85.6223 403.67C85.8476 403.453 86.112 403.289 86.4153 403.176C86.7186 403.055 87.0566 403.003 87.4293 403.02V402.201C86.8226 402.175 86.2983 402.309 85.8563 402.604C85.423 402.899 85.1023 403.319 84.8943 403.865H84.8683V402.292H84.1143ZM88.4749 402.292V409H89.2939V405.425C89.2939 405.07 89.3546 404.745 89.4759 404.45C89.5972 404.147 89.7662 403.887 89.9829 403.67C90.2082 403.453 90.4726 403.289 90.7759 403.176C91.0792 403.055 91.4172 403.003 91.7899 403.02V402.201C91.1832 402.175 90.6589 402.309 90.2169 402.604C89.7836 402.899 89.4629 403.319 89.2549 403.865H89.2289V402.292H88.4749ZM92.0815 402.292L94.7595 408.974L94.4735 409.728C94.4042 409.884 94.3392 410.027 94.2785 410.157C94.2178 410.287 94.1442 410.395 94.0575 410.482C93.9708 410.577 93.8668 410.651 93.7455 410.703C93.6328 410.755 93.4855 410.781 93.3035 410.781C93.2082 410.781 93.1128 410.772 93.0175 410.755C92.9308 410.746 92.8398 410.733 92.7445 410.716V411.405C92.8138 411.431 92.8918 411.444 92.9785 411.444C93.0738 411.453 93.2038 411.461 93.3685 411.47C93.6285 411.47 93.8408 411.444 94.0055 411.392C94.1788 411.349 94.3262 411.271 94.4475 411.158C94.5775 411.054 94.6945 410.907 94.7985 410.716C94.9025 410.534 95.0152 410.3 95.1365 410.014L98.0485 402.292H97.2295L95.1625 408.012L92.9525 402.292H92.0815ZM100.686 407.622H99.5941V409H100.14C100.149 409.095 100.14 409.204 100.114 409.325C100.097 409.455 100.062 409.576 100.01 409.689C99.9581 409.81 99.8931 409.919 99.8151 410.014C99.7371 410.109 99.6461 410.174 99.5421 410.209V410.768C99.7327 410.716 99.8974 410.629 100.036 410.508C100.183 410.387 100.305 410.244 100.4 410.079C100.495 409.923 100.565 409.75 100.608 409.559C100.66 409.377 100.686 409.191 100.686 409V407.622ZM107.909 404.268V400.472H110.951C111.567 400.472 112.065 400.628 112.446 400.94C112.828 401.252 113.018 401.729 113.018 402.37C113.018 403.011 112.828 403.488 112.446 403.8C112.065 404.112 111.567 404.268 110.951 404.268H107.909ZM107.025 399.718V409H107.909V405.022H111.146C111.562 405.022 111.939 404.966 112.277 404.853C112.615 404.732 112.906 404.558 113.148 404.333C113.391 404.099 113.577 403.817 113.707 403.488C113.837 403.159 113.902 402.786 113.902 402.37C113.902 401.954 113.837 401.581 113.707 401.252C113.577 400.923 113.391 400.645 113.148 400.42C112.906 400.186 112.615 400.013 112.277 399.9C111.939 399.779 111.562 399.718 111.146 399.718H107.025ZM115.24 404.346H116.059C116.076 403.8 116.25 403.406 116.579 403.163C116.908 402.912 117.333 402.786 117.853 402.786C118.096 402.786 118.321 402.808 118.529 402.851C118.746 402.886 118.932 402.955 119.088 403.059C119.253 403.163 119.378 403.306 119.465 403.488C119.56 403.661 119.608 403.887 119.608 404.164C119.608 404.346 119.582 404.493 119.53 404.606C119.487 404.719 119.422 404.81 119.335 404.879C119.248 404.94 119.14 404.983 119.01 405.009C118.88 405.035 118.728 405.057 118.555 405.074C118.113 405.126 117.675 405.182 117.242 405.243C116.817 405.295 116.432 405.39 116.085 405.529C115.747 405.668 115.474 405.871 115.266 406.14C115.058 406.4 114.954 406.764 114.954 407.232C114.954 407.57 115.01 407.865 115.123 408.116C115.244 408.359 115.405 408.562 115.604 408.727C115.812 408.883 116.05 408.996 116.319 409.065C116.596 409.143 116.891 409.182 117.203 409.182C117.532 409.182 117.814 409.152 118.048 409.091C118.291 409.03 118.503 408.944 118.685 408.831C118.876 408.718 119.045 408.58 119.192 408.415C119.348 408.242 119.5 408.047 119.647 407.83H119.673C119.673 408.003 119.682 408.164 119.699 408.311C119.725 408.45 119.773 408.571 119.842 408.675C119.911 408.779 120.007 408.861 120.128 408.922C120.258 408.974 120.427 409 120.635 409C120.748 409 120.839 408.996 120.908 408.987C120.986 408.978 121.073 408.965 121.168 408.948V408.259C121.09 408.294 121.003 408.311 120.908 408.311C120.587 408.311 120.427 408.146 120.427 407.817V404.255C120.427 403.804 120.353 403.44 120.206 403.163C120.059 402.877 119.868 402.656 119.634 402.5C119.4 402.344 119.136 402.24 118.841 402.188C118.546 402.127 118.252 402.097 117.957 402.097C117.567 402.097 117.212 402.14 116.891 402.227C116.57 402.314 116.289 402.448 116.046 402.63C115.812 402.812 115.626 403.046 115.487 403.332C115.348 403.618 115.266 403.956 115.24 404.346ZM119.608 405.334V406.4C119.608 406.729 119.543 407.024 119.413 407.284C119.292 407.544 119.123 407.765 118.906 407.947C118.698 408.129 118.451 408.268 118.165 408.363C117.879 408.458 117.58 408.506 117.268 408.506C117.077 408.506 116.891 408.476 116.709 408.415C116.527 408.354 116.367 408.268 116.228 408.155C116.089 408.034 115.977 407.895 115.89 407.739C115.812 407.574 115.773 407.388 115.773 407.18C115.773 406.851 115.868 406.599 116.059 406.426C116.258 406.244 116.51 406.105 116.813 406.01C117.116 405.915 117.45 405.845 117.814 405.802C118.187 405.75 118.546 405.694 118.893 405.633C119.006 405.616 119.136 405.585 119.283 405.542C119.43 405.499 119.53 405.429 119.582 405.334H119.608ZM127.987 408.454V402.292H127.168V403.449H127.142C127.064 403.267 126.951 403.094 126.804 402.929C126.665 402.764 126.505 402.621 126.323 402.5C126.141 402.37 125.937 402.27 125.712 402.201C125.495 402.132 125.261 402.097 125.01 402.097C124.525 402.097 124.091 402.188 123.71 402.37C123.337 402.543 123.021 402.786 122.761 403.098C122.51 403.401 122.315 403.761 122.176 404.177C122.046 404.584 121.981 405.018 121.981 405.477C121.981 405.954 122.037 406.404 122.15 406.829C122.263 407.245 122.44 407.609 122.683 407.921C122.934 408.233 123.251 408.48 123.632 408.662C124.013 408.835 124.473 408.922 125.01 408.922C125.504 408.922 125.933 408.796 126.297 408.545C126.67 408.294 126.951 407.96 127.142 407.544H127.168V408.454C127.168 409.269 126.999 409.893 126.661 410.326C126.323 410.759 125.773 410.976 125.01 410.976C124.785 410.976 124.564 410.95 124.347 410.898C124.13 410.855 123.931 410.781 123.749 410.677C123.576 410.573 123.424 410.434 123.294 410.261C123.173 410.096 123.09 409.888 123.047 409.637H122.228C122.254 409.992 122.349 410.296 122.514 410.547C122.687 410.807 122.9 411.019 123.151 411.184C123.411 411.349 123.701 411.47 124.022 411.548C124.343 411.626 124.672 411.665 125.01 411.665C125.556 411.665 126.015 411.591 126.388 411.444C126.769 411.297 127.077 411.084 127.311 410.807C127.545 410.53 127.714 410.192 127.818 409.793C127.931 409.394 127.987 408.948 127.987 408.454ZM125.01 408.233C124.629 408.233 124.299 408.159 124.022 408.012C123.745 407.856 123.515 407.657 123.333 407.414C123.151 407.163 123.017 406.877 122.93 406.556C122.843 406.235 122.8 405.906 122.8 405.568C122.8 405.221 122.839 404.883 122.917 404.554C123.004 404.216 123.138 403.917 123.32 403.657C123.502 403.397 123.732 403.189 124.009 403.033C124.286 402.868 124.62 402.786 125.01 402.786C125.4 402.786 125.729 402.868 125.998 403.033C126.275 403.198 126.501 403.414 126.674 403.683C126.847 403.952 126.973 404.251 127.051 404.58C127.129 404.909 127.168 405.239 127.168 405.568C127.168 405.906 127.12 406.235 127.025 406.556C126.938 406.877 126.804 407.163 126.622 407.414C126.44 407.657 126.215 407.856 125.946 408.012C125.677 408.159 125.365 408.233 125.01 408.233ZM134.626 405.178H130.284C130.318 404.875 130.388 404.58 130.492 404.294C130.604 403.999 130.752 403.744 130.934 403.527C131.116 403.302 131.337 403.124 131.597 402.994C131.857 402.855 132.156 402.786 132.494 402.786C132.823 402.786 133.118 402.855 133.378 402.994C133.638 403.124 133.859 403.302 134.041 403.527C134.223 403.744 134.361 403.995 134.457 404.281C134.561 404.567 134.617 404.866 134.626 405.178ZM130.284 405.867H135.445C135.462 405.399 135.419 404.94 135.315 404.489C135.211 404.03 135.037 403.627 134.795 403.28C134.561 402.925 134.253 402.639 133.872 402.422C133.49 402.205 133.031 402.097 132.494 402.097C131.965 402.097 131.506 402.201 131.116 402.409C130.734 402.608 130.422 402.877 130.18 403.215C129.937 403.544 129.755 403.921 129.634 404.346C129.521 404.771 129.465 405.204 129.465 405.646C129.465 406.123 129.521 406.578 129.634 407.011C129.755 407.436 129.937 407.813 130.18 408.142C130.422 408.463 130.734 408.718 131.116 408.909C131.506 409.091 131.965 409.182 132.494 409.182C133.343 409.182 133.997 408.974 134.457 408.558C134.925 408.142 135.245 407.553 135.419 406.79H134.6C134.47 407.31 134.236 407.726 133.898 408.038C133.56 408.35 133.092 408.506 132.494 408.506C132.104 408.506 131.77 408.424 131.493 408.259C131.215 408.094 130.986 407.886 130.804 407.635C130.622 407.384 130.487 407.102 130.401 406.79C130.323 406.469 130.284 406.162 130.284 405.867ZM140.825 399.718V409H141.709V401.148H141.735L147.143 409H148.131V399.718H147.247V407.57H147.221L141.813 399.718H140.825ZM152.929 402.786C153.319 402.786 153.662 402.868 153.956 403.033C154.251 403.198 154.494 403.414 154.684 403.683C154.884 403.952 155.031 404.259 155.126 404.606C155.23 404.944 155.282 405.291 155.282 405.646C155.282 406.001 155.23 406.352 155.126 406.699C155.031 407.037 154.884 407.34 154.684 407.609C154.494 407.878 154.251 408.094 153.956 408.259C153.662 408.424 153.319 408.506 152.929 408.506C152.539 408.506 152.197 408.424 151.902 408.259C151.608 408.094 151.361 407.878 151.161 407.609C150.971 407.34 150.823 407.037 150.719 406.699C150.624 406.352 150.576 406.001 150.576 405.646C150.576 405.291 150.624 404.944 150.719 404.606C150.823 404.259 150.971 403.952 151.161 403.683C151.361 403.414 151.608 403.198 151.902 403.033C152.197 402.868 152.539 402.786 152.929 402.786ZM152.929 402.097C152.418 402.097 151.963 402.192 151.564 402.383C151.174 402.574 150.845 402.829 150.576 403.15C150.308 403.471 150.104 403.848 149.965 404.281C149.827 404.706 149.757 405.161 149.757 405.646C149.757 406.131 149.827 406.591 149.965 407.024C150.104 407.449 150.308 407.821 150.576 408.142C150.845 408.463 151.174 408.718 151.564 408.909C151.963 409.091 152.418 409.182 152.929 409.182C153.441 409.182 153.891 409.091 154.281 408.909C154.68 408.718 155.014 408.463 155.282 408.142C155.551 407.821 155.755 407.449 155.893 407.024C156.032 406.591 156.101 406.131 156.101 405.646C156.101 405.161 156.032 404.706 155.893 404.281C155.755 403.848 155.551 403.471 155.282 403.15C155.014 402.829 154.68 402.574 154.281 402.383C153.891 402.192 153.441 402.097 152.929 402.097ZM158.879 402.292V400.277H158.06V402.292H156.89V402.981H158.06V407.57C158.051 408.142 158.155 408.536 158.372 408.753C158.589 408.961 158.97 409.065 159.516 409.065C159.637 409.065 159.759 409.061 159.88 409.052C160.001 409.043 160.123 409.039 160.244 409.039V408.35C160.01 408.376 159.776 408.389 159.542 408.389C159.247 408.372 159.061 408.289 158.983 408.142C158.914 407.986 158.879 407.774 158.879 407.505V402.981H160.244V402.292H158.879ZM165.72 399.718V409H166.604V404.58H171.05V403.826H166.604V400.472H171.609V399.718H165.72ZM175.64 402.786C176.03 402.786 176.373 402.868 176.667 403.033C176.962 403.198 177.205 403.414 177.395 403.683C177.595 403.952 177.742 404.259 177.837 404.606C177.941 404.944 177.993 405.291 177.993 405.646C177.993 406.001 177.941 406.352 177.837 406.699C177.742 407.037 177.595 407.34 177.395 407.609C177.205 407.878 176.962 408.094 176.667 408.259C176.373 408.424 176.03 408.506 175.64 408.506C175.25 408.506 174.908 408.424 174.613 408.259C174.319 408.094 174.072 407.878 173.872 407.609C173.682 407.34 173.534 407.037 173.43 406.699C173.335 406.352 173.287 406.001 173.287 405.646C173.287 405.291 173.335 404.944 173.43 404.606C173.534 404.259 173.682 403.952 173.872 403.683C174.072 403.414 174.319 403.198 174.613 403.033C174.908 402.868 175.25 402.786 175.64 402.786ZM175.64 402.097C175.129 402.097 174.674 402.192 174.275 402.383C173.885 402.574 173.556 402.829 173.287 403.15C173.019 403.471 172.815 403.848 172.676 404.281C172.538 404.706 172.468 405.161 172.468 405.646C172.468 406.131 172.538 406.591 172.676 407.024C172.815 407.449 173.019 407.821 173.287 408.142C173.556 408.463 173.885 408.718 174.275 408.909C174.674 409.091 175.129 409.182 175.64 409.182C176.152 409.182 176.602 409.091 176.992 408.909C177.391 408.718 177.725 408.463 177.993 408.142C178.262 407.821 178.466 407.449 178.604 407.024C178.743 406.591 178.812 406.131 178.812 405.646C178.812 405.161 178.743 404.706 178.604 404.281C178.466 403.848 178.262 403.471 177.993 403.15C177.725 402.829 177.391 402.574 176.992 402.383C176.602 402.192 176.152 402.097 175.64 402.097ZM185.724 409V402.292H184.905V405.815C184.905 406.153 184.866 406.487 184.788 406.816C184.71 407.137 184.589 407.423 184.424 407.674C184.259 407.925 184.051 408.129 183.8 408.285C183.549 408.432 183.245 408.506 182.89 408.506C182.24 408.506 181.781 408.35 181.512 408.038C181.252 407.726 181.113 407.267 181.096 406.66V402.292H180.277V406.647C180.277 407.046 180.32 407.401 180.407 407.713C180.494 408.025 180.628 408.289 180.81 408.506C181.001 408.723 181.243 408.887 181.538 409C181.841 409.121 182.205 409.182 182.63 409.182C183.133 409.182 183.588 409.065 183.995 408.831C184.411 408.588 184.727 408.242 184.944 407.791H184.97V409H185.724ZM187.519 402.292V409H188.338V405.087C188.347 404.758 188.399 404.454 188.494 404.177C188.598 403.891 188.737 403.648 188.91 403.449C189.092 403.241 189.309 403.081 189.56 402.968C189.82 402.847 190.115 402.786 190.444 402.786C190.774 402.786 191.047 402.838 191.263 402.942C191.489 403.046 191.666 403.189 191.796 403.371C191.926 403.553 192.017 403.77 192.069 404.021C192.121 404.264 192.147 404.528 192.147 404.814V409H192.966V404.684C192.966 404.285 192.927 403.926 192.849 403.605C192.771 403.284 192.637 403.016 192.446 402.799C192.256 402.574 192 402.4 191.679 402.279C191.367 402.158 190.977 402.097 190.509 402.097C190.033 402.097 189.595 402.223 189.196 402.474C188.798 402.717 188.52 403.042 188.364 403.449H188.338V402.292H187.519ZM200.677 409V399.718H199.858V403.566H199.832C199.745 403.323 199.619 403.111 199.455 402.929C199.299 402.747 199.117 402.595 198.909 402.474C198.701 402.344 198.475 402.249 198.233 402.188C197.999 402.127 197.756 402.097 197.505 402.097C196.993 402.097 196.547 402.192 196.166 402.383C195.793 402.574 195.481 402.834 195.23 403.163C194.978 403.484 194.792 403.861 194.671 404.294C194.549 404.719 194.489 405.169 194.489 405.646C194.489 406.123 194.549 406.578 194.671 407.011C194.792 407.436 194.978 407.813 195.23 408.142C195.481 408.463 195.793 408.718 196.166 408.909C196.547 409.091 196.993 409.182 197.505 409.182C197.747 409.182 197.99 409.147 198.233 409.078C198.484 409.009 198.718 408.913 198.935 408.792C199.151 408.662 199.342 408.506 199.507 408.324C199.68 408.142 199.81 407.943 199.897 407.726H199.923V409H200.677ZM195.308 405.646C195.308 405.299 195.347 404.957 195.425 404.619C195.511 404.272 195.641 403.965 195.815 403.696C195.997 403.427 196.226 403.211 196.504 403.046C196.781 402.873 197.115 402.786 197.505 402.786C197.938 402.786 198.302 402.873 198.597 403.046C198.9 403.211 199.143 403.427 199.325 403.696C199.515 403.965 199.65 404.272 199.728 404.619C199.814 404.957 199.858 405.299 199.858 405.646C199.858 405.993 199.814 406.339 199.728 406.686C199.65 407.024 199.515 407.327 199.325 407.596C199.143 407.865 198.9 408.086 198.597 408.259C198.302 408.424 197.938 408.506 197.505 408.506C197.115 408.506 196.781 408.424 196.504 408.259C196.226 408.086 195.997 407.865 195.815 407.596C195.641 407.327 195.511 407.024 195.425 406.686C195.347 406.339 195.308 405.993 195.308 405.646ZM202.981 409H204.073V407.622H202.981V409Z" fill="black"/>
</g>
<path d="M195.101 88.9668C196.16 86.4966 197.551 84.8568 200.5 83.1965C203.448 81.5362 206.147 80.4571 209.178 80.2085C212.209 79.9599 216.485 80.4173 220.263 82.0372C224.041 83.6571 226.844 85.5467 228.753 87.9137C230.663 90.2806 232.385 93.0835 232.572 96.2598C232.82 99.2908 232.923 102.259 231.864 104.73C231.054 106.619 229.663 108.259 228.127 109.836C226.735 111.476 224.929 112.078 223.455 112.306C221.898 112.326 219.095 114.049 214.777 115.294C213.947 115.626 212.909 116.041 212.078 116.373C211.248 116.705 210.936 117.431 209.96 117.701C209.13 118.033 208.818 118.76 208.818 118.76C208.818 118.76 207.677 119.818 207.178 120.981C205.538 123.202 203.669 123.949 201.199 122.89C199.891 122.329 198.978 121.249 198.708 120.273C198.438 119.298 198.21 117.824 199.02 115.935C199.83 114.046 201.221 112.406 202.758 110.828C204.149 109.188 205.374 108.338 206.848 108.109C208.717 107.362 210.377 106.698 212.827 106.2C215.277 105.703 216.357 104.789 217.187 104.457C218.018 104.125 219.056 103.71 220.135 102.797C221.277 101.739 221.526 101.157 221.776 100.576C222.586 98.687 222.814 96.5488 222.005 94.8256C221.258 92.9571 219.763 91.6282 217.148 90.5067C214.678 89.4476 212.539 89.2188 210.671 89.9659C208.802 90.7129 206.892 91.9582 204.94 94.9058C203.3 97.1268 200.601 98.2059 198.131 97.1467C196.823 96.586 195.91 95.5063 194.913 94.2191C194.208 93.0564 194.54 90.2746 195.101 88.9668ZM195.882 137.296C194.574 136.735 193.661 135.656 192.665 134.368C191.606 133.226 191.835 131.088 192.396 129.78C192.956 128.473 194.285 126.978 195.904 126.812C197.461 126.792 199.185 125.982 200.492 126.543C201.8 127.104 203.295 128.433 203.461 130.052C203.481 131.609 204.29 133.332 203.73 134.64C202.92 136.529 201.84 137.442 200.221 137.608C198.601 137.774 197.044 137.794 195.882 137.296Z" fill="white"/>
<mask id="mask0" mask-type="alpha" maskUnits="userSpaceOnUse" x="19" y="147" width="180" height="203">
<path d="M49.9795 169.977H48.5583C45.9527 169.977 43.584 172.109 43.584 174.951C43.584 177.557 45.7158 179.925 48.5583 179.925H49.9795C52.5851 179.925 54.9539 177.793 54.9539 174.951C54.9539 172.109 52.5851 169.977 49.9795 169.977Z" fill="#F9F9FB"/>
<path d="M170.548 169.977H169.127C166.521 169.977 164.152 172.109 164.152 174.951C164.152 177.557 166.284 179.925 169.127 179.925H170.548C173.153 179.925 175.522 177.793 175.522 174.951C175.522 172.109 173.39 169.977 170.548 169.977Z" fill="#F9F9FB"/>
<path d="M177.654 147H40.2676C29.1345 147 19.8965 156.238 19.8965 167.371V329.866C19.8965 340.762 29.1345 350 40.2676 350H177.891C189.024 350 198.262 340.762 198.262 329.629V167.371C198.025 156.238 188.787 147 177.654 147ZM188.076 329.392C188.076 335.077 183.339 339.814 177.654 339.814H40.2676C34.5826 339.814 29.8451 335.077 29.8451 329.392V207.639H141.412C144.018 207.639 146.387 205.508 146.387 202.665C146.387 200.06 144.255 197.691 141.412 197.691H29.8451V167.371C29.8451 161.686 34.5826 156.949 40.2676 156.949H177.891C183.339 156.949 188.076 161.686 188.076 167.371V329.392Z" fill="#F9F9FB"/>
<path d="M80.3412 251.891V267.22H68.7347L80.152 251.891H80.3412ZM80.3412 274.6V284.819H88.8569V274.6H94.7232V267.22H88.8569V240.663H80.8459L61.6699 266.4V274.6H80.3412Z" fill="#F9F9FB"/>
<path d="M105.993 262.552C105.993 261.795 105.993 260.891 105.993 259.839C106.035 258.746 106.119 257.632 106.245 256.496C106.372 255.361 106.582 254.246 106.876 253.153C107.171 252.018 107.57 251.008 108.075 250.125C108.621 249.242 109.294 248.527 110.093 247.981C110.934 247.434 111.965 247.161 113.184 247.161C114.404 247.161 115.434 247.434 116.275 247.981C117.116 248.527 117.81 249.242 118.357 250.125C118.903 251.008 119.303 252.018 119.555 253.153C119.849 254.246 120.06 255.361 120.186 256.496C120.354 257.632 120.438 258.746 120.438 259.839C120.48 260.891 120.501 261.795 120.501 262.552C120.501 263.813 120.459 265.348 120.375 267.157C120.291 268.923 120.018 270.647 119.555 272.329C119.135 273.969 118.42 275.378 117.41 276.555C116.443 277.733 115.034 278.321 113.184 278.321C111.376 278.321 109.988 277.733 109.021 276.555C108.054 275.378 107.339 273.969 106.876 272.329C106.456 270.647 106.203 268.923 106.119 267.157C106.035 265.348 105.993 263.813 105.993 262.552ZM97.0359 262.552C97.0359 266.967 97.4565 270.668 98.2975 273.654C99.1806 276.597 100.358 278.952 101.83 280.718C103.302 282.485 105.005 283.746 106.939 284.503C108.916 285.26 110.997 285.639 113.184 285.639C115.413 285.639 117.495 285.26 119.429 284.503C121.405 283.746 123.13 282.485 124.601 280.718C126.115 278.952 127.293 276.597 128.134 273.654C129.017 270.668 129.458 266.967 129.458 262.552C129.458 258.262 129.017 254.667 128.134 251.765C127.293 248.822 126.115 246.467 124.601 244.7C123.13 242.934 121.405 241.673 119.429 240.916C117.495 240.159 115.413 239.78 113.184 239.78C110.997 239.78 108.916 240.159 106.939 240.916C105.005 241.673 103.302 242.934 101.83 244.7C100.358 246.467 99.1806 248.822 98.2975 251.765C97.4565 254.667 97.0359 258.262 97.0359 262.552Z" fill="#F9F9FB"/>
<path d="M150.443 251.891V267.22H138.836L150.253 251.891H150.443ZM150.443 274.6V284.819H158.958V274.6H164.825V267.22H158.958V240.663H150.947L131.771 266.4V274.6H150.443Z" fill="#F9F9FB"/>
<path d="M165.813 289.486V292.64H197.352V289.486H165.813Z" fill="#F9F9FB"/>
</mask>
<g mask="url(#mask0)">
<path d="M139.836 314.91C214.947 314.91 275.836 254.021 275.836 178.91C275.836 103.799 214.947 42.9102 139.836 42.9102C64.7258 42.9102 3.83649 103.799 3.83649 178.91C3.83649 254.021 64.7258 314.91 139.836 314.91Z" fill="#F9F9FB"/>
</g>
<defs>
<filter id="filter0_i" x="4" y="42" width="272" height="278" filterUnits="userSpaceOnUse" color-interpolation-filters="sRGB">
<feFlood flood-opacity="0" result="BackgroundImageFix"/>
<feBlend mode="normal" in="SourceGraphic" in2="BackgroundImageFix" result="shape"/>
<feColorMatrix in="SourceAlpha" type="matrix" values="0 0 0 0 0 0 0 0 0 0 0 0 0 0 0 0 0 0 127 0" result="hardAlpha"/>
<feOffset dy="6"/>
<feGaussianBlur stdDeviation="4"/>
<feComposite in2="hardAlpha" operator="arithmetic" k2="-1" k3="1"/>
<feColorMatrix type="matrix" values="0 0 0 0 0 0 0 0 0 0 0 0 0 0 0 0 0 0 0.35 0"/>
<feBlend mode="normal" in2="shape" result="effect1_innerShadow"/>
</filter>
<filter id="filter1_i" x="0" y="283" width="49" height="55" filterUnits="userSpaceOnUse" color-interpolation-filters="sRGB">
<feFlood flood-opacity="0" result="BackgroundImageFix"/>
<feBlend mode="normal" in="SourceGraphic" in2="BackgroundImageFix" result="shape"/>
<feColorMatrix in="SourceAlpha" type="matrix" values="0 0 0 0 0 0 0 0 0 0 0 0 0 0 0 0 0 0 127 0" result="hardAlpha"/>
<feOffset dy="6"/>
<feGaussianBlur stdDeviation="4"/>
<feComposite in2="hardAlpha" operator="arithmetic" k2="-1" k3="1"/>
<feColorMatrix type="matrix" values="0 0 0 0 0 0 0 0 0 0 0 0 0 0 0 0 0 0 0.35 0"/>
<feBlend mode="normal" in2="shape" result="effect1_innerShadow"/>
</filter>
<filter id="filter2_i" x="45" y="334" width="31" height="37" filterUnits="userSpaceOnUse" color-interpolation-filters="sRGB">
<feFlood flood-opacity="0" result="BackgroundImageFix"/>
<feBlend mode="normal" in="SourceGraphic" in2="BackgroundImageFix" result="shape"/>
<feColorMatrix in="SourceAlpha" type="matrix" values="0 0 0 0 0 0 0 0 0 0 0 0 0 0 0 0 0 0 127 0" result="hardAlpha"/>
<feOffset dy="6"/>
<feGaussianBlur stdDeviation="4"/>
<feComposite in2="hardAlpha" operator="arithmetic" k2="-1" k3="1"/>
<feColorMatrix type="matrix" values="0 0 0 0 0 0 0 0 0 0 0 0 0 0 0 0 0 0 0.35 0"/>
<feBlend mode="normal" in2="shape" result="effect1_innerShadow"/>
</filter>
<filter id="filter3_d" x="94" y="109" width="22" height="22" filterUnits="userSpaceOnUse" color-interpolation-filters="sRGB">
<feFlood flood-opacity="0" result="BackgroundImageFix"/>
<feColorMatrix in="SourceAlpha" type="matrix" values="0 0 0 0 0 0 0 0 0 0 0 0 0 0 0 0 0 0 127 0"/>
<feOffset dy="4"/>
<feGaussianBlur stdDeviation="2"/>
<feColorMatrix type="matrix" values="0 0 0 0 0 0 0 0 0 0 0 0 0 0 0 0 0 0 0.25 0"/>
<feBlend mode="normal" in2="BackgroundImageFix" result="effect1_dropShadow"/>
<feBlend mode="normal" in="SourceGraphic" in2="effect1_dropShadow" result="shape"/>
</filter>
<filter id="filter4_d" x="159" y="0" width="38" height="38" filterUnits="userSpaceOnUse" color-interpolation-filters="sRGB">
<feFlood flood-opacity="0" result="BackgroundImageFix"/>
<feColorMatrix in="SourceAlpha" type="matrix" values="0 0 0 0 0 0 0 0 0 0 0 0 0 0 0 0 0 0 127 0"/>
<feOffset dy="4"/>
<feGaussianBlur stdDeviation="2"/>
<feColorMatrix type="matrix" values="0 0 0 0 0 0 0 0 0 0 0 0 0 0 0 0 0 0 0.25 0"/>
<feBlend mode="normal" in2="BackgroundImageFix" result="effect1_dropShadow"/>
<feBlend mode="normal" in="SourceGraphic" in2="effect1_dropShadow" result="shape"/>
</filter>
<filter id="filter5_d" x="234" y="128" width="31" height="31" filterUnits="userSpaceOnUse" color-interpolation-filters="sRGB">
<feFlood flood-opacity="0" result="BackgroundImageFix"/>
<feColorMatrix in="SourceAlpha" type="matrix" values="0 0 0 0 0 0 0 0 0 0 0 0 0 0 0 0 0 0 127 0"/>
<feOffset dy="4"/>
<feGaussianBlur stdDeviation="2"/>
<feColorMatrix type="matrix" values="0 0 0 0 0 0 0 0 0 0 0 0 0 0 0 0 0 0 0.25 0"/>
<feBlend mode="normal" in2="BackgroundImageFix" result="effect1_dropShadow"/>
<feBlend mode="normal" in="SourceGraphic" in2="effect1_dropShadow" result="shape"/>
</filter>
<filter id="filter6_d" x="20" y="273" width="27" height="27" filterUnits="userSpaceOnUse" color-interpolation-filters="sRGB">
<feFlood flood-opacity="0" result="BackgroundImageFix"/>
<feColorMatrix in="SourceAlpha" type="matrix" values="0 0 0 0 0 0 0 0 0 0 0 0 0 0 0 0 0 0 127 0"/>
<feOffset dy="4"/>
<feGaussianBlur stdDeviation="2"/>
<feColorMatrix type="matrix" values="0 0 0 0 0 0 0 0 0 0 0 0 0 0 0 0 0 0 0.25 0"/>
<feBlend mode="normal" in2="BackgroundImageFix" result="effect1_dropShadow"/>
<feBlend mode="normal" in="SourceGraphic" in2="effect1_dropShadow" result="shape"/>
</filter>
<filter id="filter7_i" x="67.8651" y="357.415" width="136.208" height="58.25" filterUnits="userSpaceOnUse" color-interpolation-filters="sRGB">
<feFlood flood-opacity="0" result="BackgroundImageFix"/>
<feBlend mode="normal" in="SourceGraphic" in2="BackgroundImageFix" result="shape"/>
<feColorMatrix in="SourceAlpha" type="matrix" values="0 0 0 0 0 0 0 0 0 0 0 0 0 0 0 0 0 0 127 0" result="hardAlpha"/>
<feOffset dy="4"/>
<feGaussianBlur stdDeviation="2"/>
<feComposite in2="hardAlpha" operator="arithmetic" k2="-1" k3="1"/>
<feColorMatrix type="matrix" values="0 0 0 0 0 0 0 0 0 0 0 0 0 0 0 0 0 0 0.25 0"/>
<feBlend mode="normal" in2="shape" result="effect1_innerShadow"/>
</filter>
</defs>
</svg>
