<svg width="69" height="30" viewBox="0 0 69 30" fill="none" xmlns="http://www.w3.org/2000/svg">
<path d="M57.9212 29.9998H10.5777C4.74453 29.9998 0 25.2516 0 19.4184V11.2362C0 5.40299 4.74453 0.654785 10.5777 0.654785H57.92C63.7532 0.654785 68.5014 5.40299 68.5014 11.2362V19.4184C68.5014 25.2516 63.7532 29.9998 57.9212 29.9998ZM10.5777 6.1729C7.7874 6.1729 5.51689 8.44586 5.51689 11.2374V19.4196C5.51689 22.2099 7.7874 24.4841 10.5777 24.4841H57.92C60.7103 24.4841 62.9845 22.2111 62.9845 19.4196V11.2374C62.9845 8.44709 60.7116 6.1729 57.92 6.1729H10.5777Z" fill="black"/>
<path d="M16.0309 19.1855C18.1596 19.1855 19.8853 17.4598 19.8853 15.331C19.8853 13.2023 18.1596 11.4766 16.0309 11.4766C13.9021 11.4766 12.1764 13.2023 12.1764 15.331C12.1764 17.4598 13.9021 19.1855 16.0309 19.1855Z" fill="#EB5757"/>
<path d="M27.7107 19.1855C29.8395 19.1855 31.5652 17.4598 31.5652 15.331C31.5652 13.2023 29.8395 11.4766 27.7107 11.4766C25.582 11.4766 23.8563 13.2023 23.8563 15.331C23.8563 17.4598 25.582 19.1855 27.7107 19.1855Z" fill="#EB5757"/>
<path d="M39.387 19.1855C41.5171 19.1855 43.2439 17.4587 43.2439 15.3286C43.2439 13.1985 41.5171 11.4717 39.387 11.4717C37.2568 11.4717 35.53 13.1985 35.53 15.3286C35.53 17.4587 37.2568 19.1855 39.387 19.1855Z" fill="#EB5757"/>
<path d="M51.068 11.478C53.1938 11.478 54.9188 13.2017 54.9188 15.3288C54.9188 17.4583 53.1951 19.1857 51.068 19.1857C48.9348 19.1857 47.2111 17.4583 47.2111 15.3288C47.2098 13.2017 48.9348 11.478 51.068 11.478Z" fill="#EB5757"/>
</svg>
