<svg width="25" height="30" viewBox="0 0 25 30" fill="none" xmlns="http://www.w3.org/2000/svg">
<path d="M12.7661 1.01685C13.1568 1.01685 13.3242 1.18427 13.3242 1.18427V11.6759C13.3242 11.7317 13.101 11.8991 12.7661 11.8991H12.7103C12.3755 11.8991 12.2081 11.7317 12.1523 11.7317V1.18427C12.2081 1.12846 12.4313 1.01685 12.7661 1.01685Z" fill="white" stroke="white" stroke-width="0.7" stroke-miterlimit="10"/>
<path d="M12.487 28.4179C6.01348 28.4179 0.711853 23.1163 0.711853 16.6427C0.711853 12.0108 3.11154 7.99268 6.96219 6.03945C7.018 6.03945 7.07381 5.98364 7.12961 5.98364C7.18542 5.98364 7.18542 5.98364 7.24123 5.98364C7.35284 6.03945 7.40865 6.09525 7.46445 6.20687C7.52026 6.31848 7.52026 6.43009 7.46445 6.4859C7.40865 6.59751 7.35284 6.65332 7.24123 6.70913C3.6696 8.49494 1.43734 12.2898 1.43734 16.5869C1.43734 22.6698 6.34832 27.5808 12.4312 27.5808C18.5142 27.5808 23.4251 22.6698 23.4251 16.5869C23.4251 12.2898 21.1929 8.55075 17.6771 6.70913C17.5096 6.59751 17.398 6.37429 17.5096 6.20687C17.6213 6.03945 17.8445 5.92784 18.0119 6.03945C21.8068 7.99268 24.2064 12.0108 24.2064 16.5869C24.2622 23.1721 18.9606 28.4179 12.487 28.4179Z" fill="white" stroke="white" stroke-width="1.4" stroke-miterlimit="10"/>
</svg>
