<svg width="25" height="21" viewBox="0 0 25 21" fill="none" xmlns="http://www.w3.org/2000/svg">
<path d="M24.9903 6.58138C24.9462 5.71239 24.7462 4.85966 24.4005 4.06713C24.056 3.27294 23.573 2.55196 22.9759 1.94074C22.3781 1.32713 21.673 0.837906 20.8986 0.499294C20.1356 0.169856 19.3176 0.000173453 18.4914 6.53891e-06C17.3543 0.027681 16.2537 0.423224 15.3429 1.13165C14.561 1.73126 13.8446 2.41817 13.2065 3.17997C12.9603 3.46289 13.39 2.97641 13.1142 3.28749L13.0169 3.39633L12.5121 3.96086L12.0196 3.37969L11.9715 3.32335L11.9235 3.26702C11.3049 2.49424 10.6025 1.79834 9.83029 1.19314C8.8731 0.440153 7.71075 0.0223868 6.51062 6.53891e-06C5.6843 -0.00121428 4.86602 0.168522 4.1034 0.499294C3.32761 0.835157 2.62207 1.32472 2.02614 1.94074C0.822029 3.17295 0.104405 4.82864 0.014158 6.58271C-0.0374139 7.4287 0.0521468 8.27755 0.278888 9.0918C0.539211 9.97085 0.925232 10.8042 1.42401 11.5639C2.03757 12.4476 2.72798 13.2707 3.4865 14.023C4.59469 15.1752 5.89987 16.3747 6.99698 17.3157C8.15474 18.3319 9.372 19.2725 10.6417 20.1321C11.1973 20.5605 11.8367 20.8568 12.5146 21C13.3553 20.7998 14.1421 20.4061 14.8171 19.8479C15.9294 19.062 17.002 18.2172 18.0309 17.3169C19.1083 16.3875 20.4 15.1906 21.5155 14.0282C22.2752 13.2707 22.9664 12.4424 23.5805 11.5536C24.0033 10.9051 24.3474 10.2046 24.6049 9.46818C24.9124 8.53709 25.0424 7.55269 24.9879 6.56989L24.9903 6.58138Z" fill="white"/>
</svg>
