<svg width="41" height="42" viewBox="0 0 41 42" fill="none" xmlns="http://www.w3.org/2000/svg">
<mask id="mask0" mask-type="alpha" maskUnits="userSpaceOnUse" x="0" y="0" width="41" height="43">
<path d="M9.74774 11.9707C9.74774 18.0936 14.7285 23.0744 20.8514 23.0744C26.9742 23.0744 31.9551 18.1017 31.9551 11.9787C31.9551 5.85576 26.9744 0.875 20.8514 0.875C14.7286 0.875 9.74774 5.84763 9.74774 11.9707ZM11.6393 11.9707C11.6393 6.8907 15.7715 2.75859 20.8514 2.75859C25.9313 2.75859 30.0635 6.89857 30.0635 11.9787C30.0635 17.0587 25.9314 21.1908 20.8514 21.1908C15.7716 21.1908 11.6393 17.0508 11.6393 11.9707Z" fill="white" stroke="white" stroke-width="0.25"/>
<path d="M40.8596 41.1877L40.8597 41.1877V41.1833C40.8597 35.8488 38.7724 30.8283 35.0015 27.0493C31.2303 23.2701 26.2016 21.1909 20.8673 21.1909C15.5329 21.1909 10.5123 23.2782 6.73338 27.0491C2.95417 30.8203 0.875 35.841 0.875 41.1833C0.875 41.7007 1.29932 42.1251 1.8168 42.1251C2.33427 42.1251 2.75859 41.7007 2.75859 41.1833C2.75859 31.2025 10.8786 23.0825 20.8593 23.0825C30.8401 23.0825 38.9601 31.2025 38.9601 41.1833C38.9601 41.7007 39.3844 42.1251 39.9019 42.1251C40.4202 42.1251 40.8413 41.7008 40.8596 41.1877Z" fill="white" stroke="white" stroke-width="0.25"/>
</mask>
<g mask="url(#mask0)">
<circle cx="20.9153" cy="15.6304" r="23.7698" fill="white"/>
</g>
</svg>
