<svg width="23" height="15" viewBox="0 0 23 15" fill="none" xmlns="http://www.w3.org/2000/svg">
<path d="M11.6113 13.8248C11.5812 13.8 11.556 13.7697 11.5369 13.7357C10.9563 13.1654 10.4377 12.5352 9.98997 11.8557C8.99598 10.45 8.43231 8.78553 8.36765 7.06512C8.44403 5.34689 9.00661 3.68563 9.98997 2.27455C10.444 1.59965 10.962 0.970082 11.5369 0.394566C11.5868 0.349501 11.6113 0.326969 11.6113 0.305416L11.9111 0.0369873L12.1854 0.282884C12.7893 0.884959 13.3327 1.54482 13.8077 2.25299C14.8017 3.65869 15.3654 5.32315 15.4301 7.04357C15.3537 8.7618 14.7911 10.4231 13.8077 11.8341C13.3582 12.5124 12.8398 13.1424 12.2608 13.7141C12.2109 13.7592 12.1864 13.7817 12.1864 13.8033L11.8866 14.0972L11.6113 13.8248ZM11.8073 1.1107C10.809 2.22948 9.11219 4.51309 9.11219 7.06512C9.27473 9.30705 10.2301 11.4179 11.8073 13.0195L11.8817 13.1312L11.9562 13.0195C12.9544 11.9008 14.6512 9.61716 14.6512 7.06512C14.4893 4.82487 13.5358 2.71527 11.9611 1.11364L11.8866 1.00196L11.8073 1.1107Z" fill="#2C2C2C"/>
<path d="M11.6368 13.8023C11.0329 13.2002 10.4895 12.5404 10.0145 11.8322C9.02451 10.4333 8.46132 8.77745 8.39316 7.06509C8.46142 5.35229 9.02496 3.69605 10.0155 2.29705C10.4959 1.5929 11.0389 0.933524 11.6378 0.326941L11.8876 0.103577L12.1374 0.326941C12.743 0.927526 13.2865 1.58756 13.7598 2.29705C14.7503 3.69605 15.3138 5.35229 15.3821 7.06509C15.3138 8.77789 14.7503 10.4341 13.7598 11.8331C13.2865 12.5426 12.743 13.2027 12.1374 13.8032L11.8876 14.0266L11.6368 13.8023ZM11.7613 1.08814C10.9628 1.98356 9.06619 4.33378 9.06619 7.06411C9.06619 9.79445 10.9374 12.1456 11.7613 13.0401L11.8857 13.1968L12.0101 13.0401C12.8085 12.1447 14.7052 9.79445 14.7052 7.06411C14.7052 4.33378 12.834 1.98258 12.0101 1.08814L11.8857 0.931396L11.7613 1.08814Z" fill="#2C2C2C"/>
<path d="M11.6868 13.7572C11.084 13.1691 10.5485 12.5159 10.0899 11.8096C9.11868 10.4195 8.56468 8.78093 8.49304 7.08665C8.56086 5.39167 9.11522 3.75205 10.0899 2.36367C10.5556 1.6626 11.0905 1.01012 11.6868 0.416096L11.8827 0.236816L12.0786 0.416096C12.6831 1.00256 13.2189 1.65597 13.6755 2.36367C14.6467 3.7538 15.2007 5.39238 15.2723 7.08665C15.2045 8.78163 14.6502 10.4213 13.6755 11.8096C13.2098 12.5107 12.6749 13.1632 12.0786 13.7572L11.8827 13.9365L11.6868 13.7572ZM11.6868 1.04308C10.8629 1.9385 8.99169 4.31125 8.99169 7.06412C8.99169 9.81698 10.8883 12.1897 11.6868 13.0852L11.8827 13.287L12.0786 13.0636C12.9025 12.1682 14.7737 9.79543 14.7737 7.04257C14.7737 4.2897 12.8771 1.91695 12.0786 1.02153L11.8827 0.842251L11.6868 1.04308Z" fill="#2C2C2C"/>
<path d="M13.9576 14.5851C13.8646 14.5888 13.7733 14.5593 13.7001 14.5019C13.6269 14.4444 13.5765 14.3628 13.5579 14.2716C13.5427 14.1862 13.5606 14.0983 13.6079 14.0257C13.6717 13.9475 13.7595 13.8924 13.8577 13.8689C13.9077 13.8689 18.1751 13.1528 20.4215 10.4215C21.7214 8.64571 22.3333 6.45879 22.1437 4.26624V4.1095L21.9939 4.13203C20.2378 4.52137 18.5864 5.28492 17.1523 6.37057C17.0785 6.42605 16.9931 6.46422 16.9025 6.48225C16.8456 6.48444 16.7889 6.47348 16.7369 6.4502C16.6849 6.42692 16.639 6.39196 16.6027 6.34804C16.5676 6.31328 16.5406 6.2712 16.5237 6.22479C16.5068 6.17838 16.5003 6.12881 16.5048 6.07961C16.5074 6.03226 16.5199 5.98597 16.5413 5.94365C16.5627 5.90133 16.5926 5.8639 16.6292 5.83371C18.3381 4.55947 20.3205 3.70111 22.419 3.32674L22.8432 3.28168L22.8932 3.64024V3.70783C22.9753 4.50379 22.9835 5.30565 22.9177 6.10312C22.7816 7.82082 22.1481 9.46167 21.0945 10.8251C19.8943 12.2047 18.3543 13.2465 16.6272 13.8474C15.7868 14.173 14.918 14.4203 14.0321 14.5861H13.9576V14.5851Z" fill="#2C2C2C"/>
<path d="M13.9576 14.5409C13.877 14.5448 13.7975 14.52 13.7335 14.4709C13.6695 14.4217 13.6249 14.3514 13.6079 14.2725C13.5968 14.2341 13.5956 14.1935 13.6044 14.1544C13.6131 14.1154 13.6315 14.0792 13.6578 14.0491C13.7136 13.9784 13.7935 13.9306 13.8822 13.9149C13.9321 13.9149 18.2241 13.1988 20.4704 10.4459C21.7712 8.66195 22.3829 6.46776 22.1927 4.26814V4.06632L21.9967 4.11139C20.2325 4.49867 18.5727 5.26224 17.1307 6.34993C17.0649 6.39847 16.9876 6.42917 16.9064 6.43908C16.8591 6.44014 16.8121 6.43066 16.7689 6.41135C16.7257 6.39203 16.6873 6.36336 16.6566 6.3274C16.6242 6.29854 16.5985 6.26287 16.5815 6.22294C16.5646 6.18301 16.5566 6.13981 16.5583 6.09644C16.56 6.05308 16.5713 6.01062 16.5913 5.97213C16.6113 5.93364 16.6397 5.90006 16.6742 5.87381C18.3855 4.60368 20.3669 3.74574 22.4641 3.36684L22.8138 3.32178L22.8638 3.63527C22.9546 4.44546 22.9628 5.26279 22.8882 6.07464C22.7527 7.78615 22.1196 9.42068 21.067 10.777C19.8635 12.136 18.3354 13.1679 16.6252 13.7768C15.7856 14.1049 14.9166 14.3522 14.0301 14.5155C13.9831 14.5184 13.9831 14.5409 13.9576 14.5409Z" fill="#2C2C2C"/>
<path d="M13.9576 14.4734C13.8964 14.4734 13.8367 14.4539 13.7873 14.4175C13.738 14.3812 13.7015 14.3301 13.6833 14.2716C13.6781 14.2374 13.6798 14.2026 13.6883 14.1692C13.6969 14.1357 13.7121 14.1043 13.733 14.0769C13.754 14.0495 13.7802 14.0265 13.8102 14.0095C13.8402 13.9924 13.8734 13.9816 13.9077 13.9777C13.9576 13.9777 18.275 13.2615 20.5459 10.4636C21.8476 8.67064 22.467 6.47209 22.2926 4.26328L22.2682 3.96938L21.9684 4.03698C20.201 4.43786 18.5356 5.2 17.0769 6.27552C17.028 6.31695 16.9666 6.34076 16.9025 6.34311C16.8651 6.34485 16.8279 6.33767 16.7938 6.32217C16.7597 6.30667 16.7298 6.28329 16.7066 6.25396C16.6817 6.23034 16.6623 6.2015 16.6498 6.16951C16.6373 6.13752 16.6321 6.10317 16.6344 6.06892C16.6368 6.03467 16.6466 6.00135 16.6634 5.97136C16.6801 5.94136 16.7032 5.91543 16.7311 5.89541C18.4286 4.6382 20.3925 3.78816 22.4709 3.41097L22.7453 3.36591L22.7952 3.6118C22.8865 4.41476 22.8947 5.22498 22.8197 6.02962C22.683 7.73344 22.0499 9.35982 20.9985 10.7075C19.8012 12.0572 18.2815 13.0814 16.5812 13.6847C15.748 14.0268 14.8767 14.2672 13.986 14.4009C13.9865 14.4143 13.9842 14.4276 13.9794 14.4401C13.9745 14.4525 13.9671 14.4639 13.9576 14.4734Z" fill="#2C2C2C"/>
<path d="M9.74111 14.5851C8.84473 14.4286 7.96665 14.1811 7.1205 13.8465C5.39618 13.2407 3.85767 12.1996 2.6542 10.8242C1.59733 9.46239 0.96402 7.82001 0.832997 6.10121C0.722669 5.28367 0.730918 4.45449 0.857488 3.63931L0.906472 3.30426L1.30618 3.34932C3.41355 3.71627 5.4052 4.57333 7.1205 5.8514C7.15708 5.88159 7.18701 5.91902 7.20842 5.96133C7.22983 6.00365 7.24226 6.04994 7.24492 6.09729C7.24557 6.1501 7.2357 6.20251 7.21588 6.25146C7.19606 6.30042 7.16669 6.34493 7.12948 6.38241C7.09227 6.41989 7.04798 6.44959 6.99917 6.46977C6.95036 6.48994 6.89803 6.5002 6.84522 6.49993C6.79389 6.50469 6.74217 6.49702 6.69443 6.47758C6.64669 6.45814 6.60432 6.42751 6.57091 6.38825C5.12886 5.31991 3.47837 4.56659 1.72645 4.17714L1.60204 4.15461V4.28883C1.43793 6.47892 2.04741 8.65717 3.32429 10.4441C5.56969 13.1744 9.86259 13.8915 9.88806 13.8915C9.9393 13.8954 9.98882 13.9117 10.0323 13.939C10.0759 13.9663 10.1121 14.0038 10.1379 14.0483C10.1637 14.0874 10.1814 14.1313 10.19 14.1774C10.1986 14.2235 10.1978 14.2709 10.1878 14.3167C10.1624 14.4007 10.1088 14.4733 10.0359 14.5223C9.96305 14.5712 9.87551 14.5934 9.78813 14.5851H9.74111Z" fill="#2C2C2C"/>
<path d="M9.81563 14.541H9.74117C8.8534 14.3858 7.98429 14.1382 7.148 13.8023C5.43787 13.1934 3.90976 12.1615 2.70618 10.8025C1.65484 9.44563 1.01981 7.8128 0.878125 6.10211C0.777138 5.29155 0.785375 4.4711 0.902617 3.66274L0.95258 3.34924L1.30232 3.39431C3.39949 3.77321 5.38088 4.63114 7.09215 5.90128C7.12616 5.92705 7.15415 5.95991 7.17417 5.99759C7.19419 6.03527 7.20577 6.07685 7.2081 6.11946C7.21043 6.16206 7.20346 6.20466 7.18766 6.2443C7.17187 6.28393 7.14764 6.31966 7.11665 6.34898C7.05116 6.41742 6.9615 6.45751 6.86683 6.46066C6.82519 6.46312 6.78352 6.45641 6.74476 6.44101C6.70599 6.42561 6.67108 6.40188 6.64249 6.37152C5.1937 5.2977 3.53825 4.53552 1.7804 4.13298L1.58447 4.08791V4.28972C1.40702 6.48814 2.01751 8.67797 3.30672 10.4675C5.55212 13.2429 9.87049 13.9365 9.89498 13.9365C9.98369 13.9522 10.0635 14 10.1193 14.0707C10.1446 14.1014 10.1624 14.1376 10.171 14.1764C10.1797 14.2152 10.1791 14.2556 10.1693 14.2941C10.147 14.3692 10.0999 14.4346 10.0357 14.4794C9.97141 14.5243 9.89383 14.546 9.81563 14.541Z" fill="#2C2C2C"/>
<path d="M9.81462 14.4733H9.76956C8.89077 14.3217 8.02952 14.0818 7.19891 13.7572C5.49732 13.1564 3.977 12.1318 2.78159 10.78C1.74827 9.42138 1.11481 7.80125 0.95255 6.10207C0.850262 5.29879 0.858502 4.48529 0.977042 3.68425L1.03092 3.43835L1.30523 3.48342C3.38368 3.86061 5.34756 4.71065 7.0451 5.96785C7.07299 5.98788 7.09611 6.01381 7.11282 6.04381C7.12953 6.0738 7.1394 6.10712 7.14174 6.14137C7.14408 6.17562 7.13883 6.20997 7.12636 6.24196C7.11388 6.27395 7.0945 6.30278 7.06959 6.32641C7.01643 6.37771 6.94726 6.40918 6.87366 6.41556C6.84154 6.41659 6.80955 6.41114 6.77958 6.39953C6.74962 6.38791 6.72231 6.37038 6.69928 6.34797C5.2451 5.26299 3.57667 4.49991 1.80486 4.10943L1.50508 3.97521L1.48059 4.24364C1.30123 6.45293 1.92109 8.65319 3.22734 10.444C5.49821 13.2419 9.84009 13.9355 9.86556 13.958C9.90162 13.9607 9.93645 13.9723 9.9669 13.9918C9.99735 14.0113 10.0225 14.0381 10.0399 14.0697C10.0607 14.0942 10.0759 14.123 10.0845 14.1539C10.0931 14.1848 10.095 14.2173 10.0899 14.249C10.0805 14.3141 10.0469 14.3732 9.99595 14.4148C9.94497 14.4563 9.88026 14.4772 9.81462 14.4733Z" fill="#2C2C2C"/>
</svg>
