<?xml version="1.0" encoding="utf-8"?>
<!-- Generator: Adobe Illustrator 22.1.0, SVG Export Plug-In . SVG Version: 6.00 Build 0)  -->
<svg version="1.1" id="Layer_1" xmlns="http://www.w3.org/2000/svg" xmlns:xlink="http://www.w3.org/1999/xlink" x="0px" y="0px"
	 viewBox="0 0 131.5 251.5" style="enable-background:new 0 0 131.5 251.5;" xml:space="preserve">
<style type="text/css">
	.st0{fill:#C29757;}
</style>
<path class="st0" d="M51,242.8c3.6-1.1,6.8-2.1,10-3c7.2-2.1,13.9-5.2,20-9.7c8.2-6.1,13.4-14.5,15.3-24.1
	c2.2-10.8-1.7-19.7-13-24.8c-7.2-3.3-14.8-5.9-22.2-8.6c-5.8-2.1-11.3-5-17-7.2c-2.2-0.8-2.2-2-0.2-3.8c4.7-4.3,9.6-8.3,14.3-12.6
	c14.1-12.7,28-25.7,38.7-41.6c8.2-12.2,14.4-25.5,17.3-40.1c2-10.2,2.4-20.5-0.6-30.7c-2-6.6-5.2-12.5-11.8-15.8
	c-4.9-2.4-10-2-15.1-1.3c-0.9,0.1-2.1,0.7-2.4-0.5c-0.3-1,1-1.2,1.7-1.5c9.6-4.1,22.6-1.6,28.9,9.8c3.7,6.7,5,14.1,5.9,21.6
	c1.9,16-2,31.2-7.2,46c-8.1,22.9-21.6,42.6-37.3,61c-1,1.2-1.9,2.4-3,3.5c-1.5,1.4-1,2.1,0.6,2.9c6,3,11.9,6,17.9,9.1
	c8.2,4.4,14.3,10.3,16,20c1,5.6,0.2,10.9-1.2,16.3c-3.4,13-12.1,21.6-23.3,28.2c-8.4,4.9-17.5,7.1-27.1,7.7
	C54.6,243.9,52.9,244.1,51,242.8z"/>
<path d="M79.3,189.2c-1.5,0.5-2.6,1.6-3.7,2.6c-7.4,6.5-15.1,12.3-24.6,15.6c-9.5,3.3-18-1.5-21-9.9c-0.8-2.3-1.4-4.5-2-6.8
	c-0.6-2.5-1.1-6.2-1.1-6.2c-0.5-5.7-0.6-13.4-0.6-13.4c0-1.1,0-2.2,0-3.3c0.1-5.8,1.1-18,1.1-18l0,0c0.3-2.6,0.6-5.2,0.7-7.8
	c0.5-9.3,2.3-18.4,3.9-27.6c1.1-6.1,2.3-12.2,3.8-18.2c0.8-3,4.7-17.5,12.2-46.2c1.9-6.1,3.7-12.3,5.9-18.3
	c2.3-6.4,4.9-12.7,7.2-19.1c0.9-2.5,2.4-4.9,2.5-8c-2.3,1.1-3.8,2.4-5,4.3c-5.8,9.7-10.6,19.8-14.2,30.5
	C39.2,54.7,33.7,70.1,29,85.8c-5,16.5-8.6,33.3-11.8,50.3C15,148,13,160,12,172.1c-0.9,10.9-1.4,21.8,1.2,32.6
	c4,16.5,17.7,25.4,34.4,18.2c14.6-6.2,24.5-17.3,31.4-31.3C79.4,191,79.8,190.2,79.3,189.2z"/>
</svg>
